<svg width="25" height="25" viewBox="0 0 25 25" fill="none" xmlns="http://www.w3.org/2000/svg">
<g id="Frame" clip-path="url(#clip0_20_32)">
<path id="Vector" d="M3.02877 3.0293L21.2038 3.0293C21.4716 3.0293 21.7285 3.13568 21.9178 3.32504C22.1072 3.5144 22.2136 3.77123 22.2136 4.03902V20.1946C22.2136 20.4624 22.1072 20.7193 21.9178 20.9086C21.7285 21.098 21.4716 21.2044 21.2038 21.2044H3.02877C2.76097 21.2044 2.50415 21.098 2.31478 20.9086C2.12542 20.7193 2.01904 20.4624 2.01904 20.1946L2.01904 4.03902C2.01904 3.77123 2.12542 3.5144 2.31478 3.32504C2.50415 3.13568 2.76097 3.0293 3.02877 3.0293ZM20.1941 7.30852L12.189 14.4776L4.0385 7.2863L4.0385 19.1849H20.1941V7.30852ZM4.55447 5.04875L12.1779 11.7755L19.6913 5.04875L4.55447 5.04875Z" fill="white"/>
</g>
<defs>
<clipPath id="clip0_20_32">
<rect width="24.2334" height="24.2334" fill="white"/>
</clipPath>
</defs>
</svg>
