<svg width="25" height="25" viewBox="0 0 25 25" fill="none" xmlns="http://www.w3.org/2000/svg">
<g id="Frame" clip-path="url(#clip0_20_35)">
<path id="Vector" d="M19.1844 10.0973H20.1942C20.462 10.0973 20.7188 10.2037 20.9081 10.3931C21.0975 10.5824 21.2039 10.8393 21.2039 11.1071V21.2043C21.2039 21.4721 21.0975 21.729 20.9081 21.9183C20.7188 22.1077 20.462 22.2141 20.1942 22.2141H4.03853C3.77074 22.2141 3.51391 22.1077 3.32455 21.9183C3.13519 21.729 3.02881 21.4721 3.02881 21.2043L3.02881 11.1071C3.02881 10.8393 3.13519 10.5824 3.32455 10.3931C3.51391 10.2037 3.77074 10.0973 4.03853 10.0973H5.04826V9.08762C5.04826 8.15942 5.23108 7.24032 5.58629 6.38278C5.94149 5.52524 6.46212 4.74606 7.11845 4.08973C7.77479 3.43339 8.55397 2.91276 9.41151 2.55756C10.269 2.20235 11.1882 2.01953 12.1163 2.01953C13.0445 2.01953 13.9636 2.20235 14.8212 2.55756C15.6787 2.91276 16.4579 3.43339 17.1142 4.08973C17.7706 4.74606 18.2912 5.52524 18.6464 6.38278C19.0016 7.24032 19.1844 8.15942 19.1844 9.08762V10.0973ZM5.04826 12.1168L5.04826 20.1946H19.1844V12.1168L5.04826 12.1168ZM11.1066 14.1362H13.1261L13.1261 18.1752H11.1066L11.1066 14.1362ZM17.165 10.0973V9.08762C17.165 7.74863 16.6331 6.4645 15.6863 5.51769C14.7395 4.57089 13.4553 4.03898 12.1163 4.03898C10.7774 4.03898 9.49323 4.57089 8.54642 5.51769C7.59962 6.4645 7.06771 7.74863 7.06771 9.08762L7.06771 10.0973H17.165Z" fill="white"/>
</g>
<defs>
<clipPath id="clip0_20_35">
<rect width="24.2334" height="24.2334" fill="white"/>
</clipPath>
</defs>
</svg>
